<?xml version="1.0" encoding="utf-8"?>
<!-- Generator: Adobe Illustrator 22.1.0, SVG Export Plug-In . SVG Version: 6.00 Build 0)  -->
<svg version="1.1" id="Layer_1" xmlns="http://www.w3.org/2000/svg" xmlns:xlink="http://www.w3.org/1999/xlink" x="0px" y="0px"
	 viewBox="0 0 180 56" enable-background="new 0 0 180 56" xml:space="preserve">
<g enable-background="new    ">
	<path fill="#FECC1F" d="M2,7.2c0-0.7,0.3-1.3,0.8-1.9c0.5-0.5,1.1-0.8,1.9-0.8h22.5c5.5,0,9.6,1.6,12.2,4.8c1.5,1.8,2.2,4,2.2,6.7
		c0,2.7-1.2,5.1-3.7,7.1c3.5,1.9,5.3,4.9,5.3,8.9s-1.4,7.1-4.3,9.1c-2.8,2.1-6.3,3.1-10.4,3.1H4.6c-0.7,0-1.3-0.3-1.9-0.8
		S2,42.4,2,41.7V7.2z M12.4,20h14.8c1.2,0,2.1-0.3,2.8-1c0.7-0.7,1.1-1.7,1.1-2.9c0-1.2-0.4-2.2-1.1-2.9c-0.7-0.7-1.6-1.1-2.8-1.1
		H12.4V20z M12.4,36.8h15.9c1.4,0,2.5-0.4,3.3-1.3c0.8-0.8,1.1-2,1.1-3.5c0-1.5-0.4-2.6-1.1-3.5c-0.8-0.8-1.8-1.3-3.3-1.3H12.4V36.8
		z"/>
</g>
<g enable-background="new    ">
	<path fill="#0170C1" d="M48.2,8.1V7.2c0-1,0.3-1.8,0.8-2.3C49.6,4.3,50.4,4,51.4,4h3.4c1,0,1.8,0.3,2.3,0.8C57.7,5.4,58,6.2,58,7.2
		v0.9c0,1-0.3,1.8-0.8,2.3c-0.6,0.6-1.3,0.9-2.3,0.9h-3.4c-1,0-1.8-0.3-2.3-0.9C48.5,9.9,48.2,9.1,48.2,8.1z M48.3,42.6V16.3
		c0-0.5,0.2-0.9,0.5-1.2c0.3-0.3,0.7-0.5,1.2-0.5h6.2c0.5,0,0.9,0.2,1.2,0.5s0.5,0.7,0.5,1.2v26.3c0,0.5-0.2,0.9-0.5,1.2
		s-0.7,0.5-1.2,0.5H50c-0.5,0-0.9-0.2-1.2-0.5C48.5,43.5,48.3,43.1,48.3,42.6z"/>
	<path fill="#0170C1" d="M62.8,18.9v-3.3c0-0.5,0.2-0.9,0.5-1.2c0.3-0.3,0.7-0.5,1.2-0.5h25.2c0.5,0,0.9,0.2,1.2,0.5
		c0.3,0.3,0.5,0.7,0.5,1.2v2.7c0,1.4-0.7,2.7-2,4L74.4,37.6H90c0.5,0,0.9,0.2,1.2,0.5s0.5,0.7,0.5,1.2v3.3c0,0.5-0.2,0.9-0.5,1.2
		c-0.3,0.3-0.7,0.5-1.2,0.5H64.6c-0.5,0-0.9-0.2-1.2-0.5c-0.3-0.3-0.5-0.7-0.5-1.2v-2.7c0-1.3,0.7-2.7,2-4l14.6-15.3H64.6
		c-0.5,0-0.9-0.2-1.2-0.5S62.8,19.4,62.8,18.9z"/>
	<path fill="#0170C1" d="M94,16.3c-0.1-0.5-0.2-0.9-0.3-1.2c0-0.8,0.5-1.2,1.4-1.2h5.2c0.9,0,1.6,0.2,2.3,0.7s1.2,1,1.4,1.8
		l4.5,14.9l4.5-14.9c0.5-1.6,1.6-2.4,3.2-2.4h4.9c1.6,0,2.7,0.8,3.2,2.4l4.5,14.9l4.5-14.9c0.3-0.8,0.7-1.4,1.4-1.8
		c0.7-0.4,1.5-0.7,2.3-0.7h5.2c0.9,0,1.4,0.4,1.4,1.2c0,0.3-0.1,0.7-0.2,1.2l-8.4,25.5c-0.3,0.8-0.7,1.4-1.4,1.8
		c-0.7,0.4-1.4,0.7-2.1,0.7h-3.9c-0.8,0-1.5-0.2-2.2-0.7c-0.7-0.5-1.1-1-1.4-1.8l-5.3-16.5l-5.3,16.5c-0.2,0.7-0.7,1.3-1.4,1.8
		s-1.4,0.7-2.2,0.7h-3.9c-0.8,0-1.5-0.2-2.1-0.7c-0.7-0.4-1.1-1-1.4-1.8L94,16.3z"/>
	<path fill="#0170C1" d="M153.4,47.1l3.6,0.5c2.6,0,4.4-1.9,5.5-5.7c-3.1,0-5.8-0.9-7.9-2.8c-2.1-1.9-3.9-5.3-5.4-10.1l-4.1-13.4
		c-0.1-0.1-0.1-0.3-0.1-0.5s0.1-0.4,0.3-0.7c0.2-0.3,0.6-0.4,1-0.4h5.8c0.5,0,1,0.2,1.5,0.5c0.5,0.4,0.8,0.8,1,1.3l3.6,11.7
		c0.9,2.9,1.8,4.9,2.8,6c0.9,1.1,2,1.7,3.3,1.7l5.5-19.4c0.1-0.5,0.4-1,0.9-1.3c0.4-0.4,0.9-0.5,1.5-0.5h5.8c0.5,0,0.8,0.1,1,0.4
		c0.2,0.3,0.3,0.5,0.3,0.7s0,0.4-0.1,0.5l-7.3,25.9c-1.3,4.6-2.9,7.9-4.8,9.8c-1.9,2-4.4,2.9-7.4,2.9c-3,0-5.1-0.1-6.4-0.3
		c-1.2-0.2-2-0.5-2.3-0.8c-0.3-0.3-0.5-0.7-0.5-1.1v-3c0-0.5,0.2-0.9,0.5-1.2c0.3-0.3,0.7-0.5,1.2-0.5H153.4z"/>
</g>
<g>
	<path fill="#FECC1F" d="M54.1,12.1h-2c-2.4,0-4.3-1.9-4.3-4.3l0,0c0-2.4,1.9-4.3,4.3-4.3h2c2.4,0,4.3,1.9,4.3,4.3l0,0
		C58.4,10.1,56.5,12.1,54.1,12.1z"/>
</g>
</svg>
